<svg zxmlns="http://www.w3.org/2000/svg" width="1941.333" height="1941.333"
     viewBox="0 0 1456.000000 1456.000000">
    <path d="M580.8.5c-.1.1-2.5.5-5.3.9-4.6.5-6.4.9-12 2-22.9 4.7-50.7 18-68 32.7-8.4 7.1-20.3 19.9-27.3 29.4-2.7 3.6-12.7 20.8-12.4 21.3.1.1-.4 1.5-1.2 3-1.4 2.9-6.6 16.7-7.1 19.2-2.9 13.8-3.7 18.1-4.1 22.4-.5 5.2-.5 22.5 0 26.1 2.4 16.1 10.8 37.5 22.8 57.8 1.5 2.6 2.8 5.1 2.8 5.4 0 .3 1.1 2.1 2.5 3.9 1.4 1.8 2.5 3.6 2.5 3.9 0 .8 17.9 27.2 21.4 31.7 1.2 1.5 3.2 4.3 4.6 6.3 1.4 2 3 4.2 3.5 4.8.6.7 3.9 5 7.5 9.7 3.6 4.7 7.2 9.4 8.1 10.5.9 1.1 3.8 4.7 6.5 8 2.6 3.3 5.3 6.7 6.1 7.5.7.8 5.3 6.2 10.1 12s9.6 11.6 10.7 12.9c1.1 1.3 2.7 3.1 3.5 4 .9.9 4.7 5.2 8.5 9.6 3.9 4.4 7.5 8.5 8 9.1.6.6 4.6 5 9 9.9 4.4 4.8 9.8 10.7 12 13.1 2.2 2.3 7.8 8.3 12.5 13.4 14.5 15.7 26.9 28.4 59.9 61.5l31.8 32v123.4l-3.3-4.7c-1.9-2.6-3.4-5.3-3.4-5.9 0-.7-.4-1.3-.8-1.3s-1.5-1.2-2.4-2.8c-6.1-10.1-28.1-33.4-40-42.4-1.7-1.3-4.4-3.5-6.2-4.9-1.7-1.4-4.9-3.6-7.1-4.9-2.2-1.3-4.5-2.9-5.1-3.5-.6-.5-2.8-1.9-5-3-2.1-1.1-4.1-2.3-4.4-2.6-1.1-1.4-26.5-13-32.5-14.9-2.2-.7-4.6-1.7-5.2-2.3-.7-.5-1.3-.7-1.3-.4 0 .4-1.9-.1-4.2-.9-7.9-2.8-24.1-6.2-38.3-8-5.8-.7-37.4-1.2-41.2-.7l-3.3.5.6 5.7c.3 3.1.7 6.7 1 8.1.2 1.4.7 3.9.9 5.6.2 1.7 1.1 6 2 9.5.9 3.5 1.8 7.3 2 8.4 1.7 7.3 9.9 29.5 12.2 33 .7 1.1 1.3 2.5 1.3 3.1 0 1.8 11.4 21.7 16.8 29.4 10.5 15.2 25.3 31.4 39.2 43.2 9.7 8.2 29.6 21.8 31.9 21.8.5 0 1.1.3 1.3.7.4 1 15.5 8.5 22.8 11.3 3 1.2 6.6 2.7 8 3.2 3.5 1.5 14 4.8 17 5.4 1.4.3 4.3 1 6.5 1.6 4.1 1 6.2 1.5 10.5 2.3 1.4.2 4.1.7 6 1 1.9.4 6 .8 9 1 3 .3 5.5.5 5.5.6 0 .1 1.6.3 3.5.4 1.9.2 4 .4 4.6.4.9.1 1.2 24.6 1.1 92.3 0 50.8-.2 92.7-.6 93.3-.3.6-7.1 1.1-16.1 1.2-25.7.3-64.6 2.1-85.5 3.9-2.7.2-7.5.6-10.5.8-11.6.9-36.7 3.4-40.9 4-1.4.3-4.8.7-7.6 1.1-2.7.3-7.7 1-11 1.5s-8.2 1.2-11 1.6c-2.7.3-5.2.7-5.5.9-.3.2-3 .6-6 1s-5.7.8-6 1c-.3.2-2.4.6-4.6.9-2.2.4-5.1.9-6.4 1.1-1.4.3-3.8.8-5.5 1.1-1.6.2-4.8 1-6.9 1.5-2.2.6-4.9 1.2-6 1.4-1.2.1-2.8.5-3.6.8-.8.3-4.2 1.2-7.5 2-3.3.9-8.1 2.2-10.7 3-2.7.8-4.8 1.3-4.8 1 0-.3-.6-.1-1.2.4-.7.5-4.2 2-7.8 3.2-11.2 3.9-20.2 8.2-27.6 13.2-4.9 3.3-10.4 9.4-10.4 11.4 0 .8-.4 1.5-.8 1.5-1.5 0-1.3 8 .4 11.2 1.6 3.1 6.2 8.1 11.2 12 2.1 1.7 22.6 11.8 24.7 12.2.5.2 5.7 1.7 11.5 3.5 9.2 2.9 17.4 5.3 23.2 6.7 9.7 2.3 15.4 3.6 17.3 3.9 1.1.2 5.4 1 9.5 1.8 4.1.9 9.1 1.8 11 2.1 3.6.6 6.2 1.1 11.5 2.1 1.7.3 5.4.8 8.2 1 5.7.5 11.3 1.4 12.2 1.9.3.2 3.7.7 7.4 1.1 3.7.3 7.8.8 9 1.1 1.2.2 4.9.6 8.2.9 3.3.2 7.6.6 9.5.9 5 .7 11.2 1.3 33.5 3.1 2.2.2 8.1.6 13 1 5 .3 11.7.8 15 1 11.2.8 38 1.8 49.2 1.9 6.2.1 11.3.3 11.3.6 0 .7 68.5.4 70.4-.3.8-.3 1.8-.2 2.1.4.4.5 1.1.7 1.6.4.5-.4 7.8-.8 16.1-1 25.7-.7 51.9-2.2 75.3-4.1 3.3-.3 8.6-.7 11.8-.9 3.2-.2 7.4-.6 9.5-.9 2-.3 7.3-.8 11.6-1.1 4.3-.3 8.2-.7 8.5-.9.3-.2 3.8-.7 7.6-1.1 7.5-.7 11.3-1.1 17.3-2.1 2-.3 4.8-.7 6.2-.9 7.1-.9 12.7-1.7 14-2 .8-.3 3.3-.7 5.5-1 2.2-.3 8.1-1.3 13-2.2 5-1 9.3-1.6 9.8-1.5.4.1.7-.3.7-.9 0-.5.4-.8.9-.5.8.5 15.6-2.4 19.1-3.8.8-.3 2.9-.8 4.5-1.1 3.4-.7 4.2-.9 7-1.7 1.1-.4 6.7-2.1 12.5-3.8 11.3-3.5 13.6-4.3 25-9.8 16.3-7.7 24.1-15.9 23.6-24.7-.4-7.3-5.1-13.2-15.6-19.7-4.8-3-18.7-9.6-21.5-10.3-.5-.1-1.9-.5-3-.9-1.1-.5-3.3-1.2-5-1.8-1.6-.5-3.9-1.4-5-1.8-2.2-.9-16.5-4.8-20.5-5.6-1.4-.3-4.1-.9-6-1.4-1.9-.5-4.6-1.1-6-1.4-1.4-.2-4.7-.9-7.5-1.5-2.7-.6-6.1-1.3-7.5-1.5-1.4-.3-5-1-8-1.6-6.6-1.3-11.5-2.1-14.9-2.4-1.5-.2-3.7-.6-5.1-.9-1.4-.3-4.5-.9-7-1.2-7.1-.8-13.2-1.6-17-2.2-1.9-.3-5.3-.7-7.5-.9-2.2-.2-5.8-.6-8-.8-5.9-.8-19.5-2.2-31-3.2-3.8-.3-8.6-.8-10.5-1-1.9-.2-7.8-.6-13-.9-5.2-.3-12.9-.8-17-1.1-8.7-.6-19.5-1.1-44-2-9.6-.3-19.1-.6-21-.7l-3.5-.2-.1-23.3c-.1-14.2.2-23.5.8-23.8.6-.4 3.1-.8 5.7-1 2.5-.3 6-.7 7.6-.9 1.7-.3 4.9-.8 7.3-1 9.9-1.2 36.8-8.5 46.2-12.7 11.7-5.2 27.5-13.1 27.8-13.9.2-.5.9-.9 1.6-.9 1.2 0 20.7-13 23.1-15.4.7-.6 3.5-2.9 6.3-5 4.3-3.4 25.6-24.7 28.7-28.8.6-.7 2.6-3.3 4.6-5.8 8.8-11.2 23.1-35.8 28.6-49.5 1.2-3 6.2-17.1 6.7-19 .2-.6.6-1.7.9-2.5.6-1.5 2.7-10.3 4.6-19.2 1.1-4.8 2.4-14 2.5-17.1 0-.9.5-1.7 1-1.7.6 0 .5-.5-.1-1.1-1.9-1.9-45.1-1.3-48.4.7-.3.1-2.8.6-5.5.9-2.7.4-5.7.8-6.6 1.1-.9.3-2.6.7-3.8.9-5.7 1.1-19.7 4.8-21.3 5.7-1 .5-2.6 1.1-3.5 1.3-.9.2-3 .9-4.7 1.6-1.6.6-3.6 1.3-4.2 1.5-2.1.4-21.5 9.6-26.6 12.6-2.6 1.5-5.2 2.8-5.7 2.8-.6 0-1 .4-1 1 0 .5-.4 1-.9 1-2.2 0-19.8 12.8-29.7 21.6-15.4 13.5-26.9 26.9-40 46.3l-2.1 3.1V482.9l7.7-7.7c4.3-4.2 11.1-10.9 15.1-14.8 11.7-11.3 54.4-55 65.4-66.8 5.5-6 12-12.9 14.5-15.5 2.5-2.5 10.1-10.9 17-18.6 6.9-7.7 12.9-14.5 13.5-15.1.5-.6 3.3-3.7 6-6.9 12.2-14.1 15.9-18.5 22.5-26.5 3.4-4.1 7.2-8.6 8.4-10 1.2-1.4 4.2-5.2 6.7-8.5 2.4-3.3 5.3-6.9 6.4-8.1 1.1-1.2 2.7-3.1 3.5-4.4.8-1.2 2-2.8 2.6-3.4.5-.6 4.1-5.4 7.9-10.6 3.8-5.2 8.3-11.3 10-13.6 1.6-2.3 3.6-5 4.3-6 .6-1 3.5-5.2 6.2-9.2 2.8-4 5-7.7 5-8.2 0-.6.5-1 1-1 .6 0 1-.6 1-1.4 0-.8.6-2.1 1.4-2.8.7-.8 2.3-3.2 3.5-5.4 5.8-10.4 6.6-11.9 7.1-12.4.9-.8 9.7-20 11.5-25 1.6-4.5 2.7-8.1 4.7-15.5 1.3-5 1.6-27.1.4-34.5-.5-3-.9-6.4-1.1-7.6-.1-1.1-.5-2.5-.9-3.2-.4-.7-.5-1.2-.2-1.2.6 0-2-9.6-3.4-12.5-.6-1.1-1.1-2.9-1.3-4-.2-1.1-1.6-4.6-3-7.9-1.5-3.2-2.7-6.4-2.7-7.1 0-.8-.3-1.5-.7-1.7-.5-.2-2-2.8-3.6-5.9-1.5-3.2-3.4-6.2-4.2-6.9-.8-.7-1.5-1.7-1.5-2.3 0-2.1-11.7-16.5-20.9-25.8-10.8-10.8-19.5-17.5-32.2-24.7-13.5-7.8-34.8-15.6-47.4-17.6-1.6-.2-3-.5-3-.6 0-.5-7.9-1-22-1.4C847.9.2 845.8.4 823 4.3c-.9.2-2.1.7-2.8 1.1-.7.4-1.6.5-1.9.2-.3-.3-1.1-.2-1.7.3-.6.4-3.6 1.6-6.6 2.5-10.7 3.4-28 12.4-38.9 20.2-8.7 6.2-22.5 19.2-27.9 26.4-1.5 1.9-3.5 4.4-4.5 5.5-1 1.1-2.8 3.6-4 5.5-1.1 1.9-2.4 3.7-2.8 4-.3.3-1.3 1.8-2.1 3.4l-1.5 2.9-2.6-3.5c-1.5-1.9-2.7-3.8-2.7-4.1 0-.4-2.7-4.3-6.1-8.6-6.2-8.2-19.3-21.6-26.4-27.1-2.2-1.7-4.7-3.6-5.5-4.3-5.4-4.4-28.1-17-33.2-18.5-.4-.2-1.3-.4-2-.7-21-6.9-30.9-8.6-52-9-9.1-.2-16.8-.2-17 0zM392 1052.6c0 21.2.2 23.8 1.9 27.2 3.7 7.2 8.9 11.2 23.6 18.1 14.8 7 46.6 16.6 69 20.7.6.1 1.2.3 1.5.4.3.1 1.4.3 2.5.5 1.1.1 3.6.6 5.5 1s4.4.8 5.5 1c1.1.1 3.8.6 6 1 7.1 1.3 7.9 1.5 13 2.1 2.7.3 5.2.7 5.6.9.3.3 3.5.7 7 1 3.5.3 7.1.7 7.9 1 .8.2 3.8.6 6.5 1 2.8.3 6.6.8 8.5 1 1.9.3 6.2.7 9.5 1 3.3.4 7.6.8 9.5 1.1 1.9.2 6.2.6 9.5.8 3.3.3 8.5.8 11.5 1.1 5.1.6 12.6 1.1 26 2 3 .2 5.5.4 5.5.5 0 .1 3.6.3 8 .5 4.4.1 16.3.7 26.5 1.1 43.3 1.9 131.6.9 172.5-2 3.9-.3 10.6-.7 15-1 4.4-.3 10.7-.8 14-1.1 11.5-1.1 15-1.4 22-2 3.9-.4 8.4-.9 10-1.1 1.7-.2 5.5-.7 8.5-1 3-.3 6.8-.9 8.3-1.4 1.6-.5 2.5-.5 2.2 0-.3.5.9.5 2.7-.1 1.8-.5 5.1-1.1 7.3-1.3 2.2-.3 5.8-.8 8-1.1 2.2-.3 5.4-.8 7-1 1.7-.2 4.1-.6 5.5-.9 1.4-.3 4.1-.7 6-1 1.9-.3 4.6-.8 6-1.1 1.4-.3 3.9-.8 5.5-1 30.1-5.2 62.9-14.9 79.7-23.7 11.1-5.8 19.2-13 20.8-18.6.7-2.3 1-12.3.8-26.3l-.3-22.6-6 2.8c-11.9 5.5-15.9 7.1-27.8 11.1-6.7 2.2-12.6 4.1-13.2 4.3-.5.1-3 .8-5.5 1.5s-4.9 1.5-5.5 1.6c-.5.2-1.9.5-3 .8-2.4.7-22.9 5.4-26.5 6.1-1.4.3-3.5.7-4.7 1-5 1.1-6 1.3-11.3 2.1-3 .4-5.7.8-6 .9-.3.1-2.7.5-5.5 1-2.7.4-5.9.9-7 1.2-1.8.4-5 .8-13 1.8-7.6.9-13.1 1.7-14.5 2-.8.3-5.2.7-9.6 1-4.5.3-9.2.8-10.5 1-1.3.3-6.2.8-10.9 1.1-4.7.3-10.1.8-12 1-1.9.2-7.1.6-11.5.9-4.4.3-10.9.8-14.5 1-6.9.5-20.6 1.2-44 2.1-8 .4-39 .7-69 .7-58.3.1-85.9-.6-116.5-2.8-4.9-.4-11.5-.8-14.5-1-5.5-.3-17.8-1.3-23.5-1.9-1.6-.2-6.8-.7-11.5-1.1-4.7-.4-9.3-.9-10.3-1.1-1-.2-4.6-.6-8-.9-3.4-.3-6.9-.8-7.7-1-.8-.2-4.4-.7-8-1-3.5-.4-6.7-.8-7-1-.3-.2-2.8-.6-5.6-1-4.4-.5-10.4-1.4-18.9-3-1.6-.3-4.6-.8-6.5-1.1-1.9-.3-4.2-.7-5-1-.8-.3-3.1-.8-5-1-1.9-.3-4.3-.7-5.2-1-1-.3-3-.7-4.4-1-1.5-.3-5.4-1.2-8.8-2-3.4-.8-7.2-1.7-8.6-2-1.4-.2-3.2-.7-4-1-.8-.3-2.6-.8-4-1-1.4-.3-3.2-.7-4-1.1-.8-.3-1.9-.7-2.5-.8-.5-.2-3-.9-5.5-1.6-2.5-.7-4.8-1.3-5.2-1.5-.5-.1-1-.3-1.3-.4-.3-.1-.8-.3-1.2-.5-.5-.1-1.5-.4-2.3-.7-.8-.3-6.4-2.4-12.5-4.6-6-2.2-13.6-5.2-16.7-6.6l-5.8-2.6v23.6zM434.6 1168.2c.3 1.2 3.3 8.3 6.6 15.8 6.7 15.1 7.9 17.9 10.2 23.2.9 2.1 2.2 5.3 3 7 .8 1.8 4.9 11.2 9 20.8 4.2 9.6 8.1 18.4 8.6 19.5 1.2 2.8 5.1 11.6 9 20.5 1.8 4.1 4.3 9.9 5.6 12.8 1.3 2.9 2.4 5.5 2.4 5.7 0 .3 1.3 3.2 2.9 6.5 1.6 3.3 2.7 6 2.5 6-.3 0 .2 1.2 1 2.7 1.9 3.4 7.6 16.1 7.6 16.9 0 .3 1.1 2.8 2.5 5.5 1.3 2.7 2.1 4.9 1.8 4.9-.3 0 .1.8 1 1.7.8 1 1.6 2 1.6 2.3 0 .5 1.2 3.7 3.2 8.5.7 1.6 1.3 3.2 1.4 3.5.2.5 2.3 5.3 5.5 12.5 1 2.2 3.2 7.4 5 11.5 1.8 4.1 4.2 9.7 5.5 12.5 1.2 2.7 3.5 7.9 5 11.5 5.9 13.8 11.4 24.6 13.7 26.6 1.2 1.1 4 3 6.1 4.2 3.6 2.1 18.4 7.7 23 8.7 1.2.2 5.4 1.2 9.2 2.1 3.9.8 7.9 1.7 9 2 3.5.7 18.9 3.3 23.5 3.8 2.5.3 5.6.8 6.9 1.1 1.4.2 5.4.7 9 1 3.6.3 7.7.7 9.1 1 2.3.4 6.1.7 25.5 2 33 2.2 96.4 2.2 119.5 0 1.9-.2 7.8-.6 13-1s10.9-.9 12.5-1.1c5.1-.7 10.8-1.4 16-2 2.8-.3 6.1-.7 7.5-.9 1.4-.2 4.3-.6 6.5-1 2.3-.3 5.2-.8 6.5-1 1.4-.3 4.1-.8 6-1.1 1.9-.4 4-.7 4.5-.9.6-.1 2.8-.5 5-.9 2.2-.5 6.1-1.4 8.8-2.1 2.6-.8 4.7-1.1 4.7-.8 0 .3.6.1 1.3-.5.6-.5 2.8-1.3 4.7-1.7 3.7-.8 7.3-2.2 15.8-6.3 5.4-2.6 11.1-8 11.3-10.7.2-2.3.9-4.2 3.9-11 1-2.2 4.6-10.5 8-18.5 6.9-16 8.8-20.5 13.1-29.8 1.6-3.5 2.9-7 2.9-7.8 0-.8.5-1.4 1-1.4.6 0 1-.6 1-1.3 0-.8.6-2.7 1.4-4.3.8-1.6 4.4-9.9 8.1-18.4 3.7-8.5 7.6-17.5 8.7-20 1.1-2.5 3.4-7.7 5-11.5 4.2-9.6 6.1-13.8 9.8-22 1.8-3.9 3.3-7.5 3.4-8 .3-1 2.4-5.9 5.8-13.5 2.8-6.1 7.9-17.9 8.3-19 .1-.3 1.2-2.8 2.4-5.5 2.8-6.1 4.4-9.8 4.5-10.5.1-.3 1.4-3.1 2.9-6.4 1.5-3.2 2.7-6 2.7-6.2 0-.2 1.3-3.3 3-6.8 1.6-3.6 4.1-9.4 5.6-12.8 1.5-3.5 3.4-7.9 4.2-9.8.9-1.9 1.6-3.7 1.7-4 0-.3.6-1.5 1.3-2.6.6-1.2.9-2.4.6-2.6-.3-.3-3.3.3-6.7 1.4-3.4 1.1-6.9 2.1-7.7 2.3l-8 2c-3.6.9-7.4 1.9-8.5 2.1-6.4 1.4-12.3 2.6-14 2.9-1.1.2-3.1.7-4.5 1-1.4.4-3.6.8-5 1-1.4.2-6.1 1.1-10.5 1.9-4.4.9-10.2 1.8-12.9 2.1-2.7.3-5.2.8-5.5.9-.3.2-3.1.7-6.1 1.1-3 .4-6.8.9-8.5 1.1-1.6.2-4.8.6-7 .9-2.2.2-6.2.8-9 1.1-2.7.4-6.1.8-7.5.9-1.4.1-5.9.6-10 1s-9.3.9-11.5 1.1c-2.2.1-4 .3-4 .4 0 .1-2.5.3-5.5.5s-8.4.6-12 .9c-6.2.5-15.8 1.1-33.5 2.1-21.7 1.3-49.6 1.8-97 1.9-64.7 0-95.8-1.1-142.5-4.9-12.8-1.1-26.2-2.3-31.7-3-1.5-.2-5.5-.6-8.8-1-5.9-.6-7-.8-15-1.9-2.2-.4-5.8-.9-8-1.2-2.2-.3-4.9-.7-6-.8-1.1-.2-4.2-.7-7-1.1-2.7-.4-5.9-.9-7-1.2-1.1-.2-3.3-.6-5-.8-1.6-.3-4.1-.8-5.5-1.1-1.4-.3-3.4-.7-4.6-.9-4.6-.7-14.1-2.7-17-3.6-1.7-.5-4.2-1.2-5.5-1.5-6.6-1.4-10.9-2.4-16.4-3.9-3.3-.9-6.7-1.8-7.5-2-.8-.2-2.8-.8-4.3-1.4-2.7-1-2.8-1-2.1 1.1z"/>
</svg>
