<svg xmlns="http://www.w3.org/2000/svg" viewBox="0 0 42.2 91.4"><path d="M0 64.6v2.8c0 2.2 9.5 4.1 21.1 4.1 11.6 0 21.1-1.8 21.1-4.1v-2.8c-3.9 2-11 3-21.1 3C11 67.6 4 66.5 0 64.6L0 64.6z" class="a"/><path d="M21.1 63.8c11.6 0 21.1-1.8 21.1-4.1 0-2.2-8.4-3.9-19.2-4.1v-3c6.6-0.4 12.1-5.5 12.8-12.3l0 0c-5.3-0.4-10.2 2.2-12.8 6.5V30.3c4.6-4.4 16-16 16-20.8C39 4.3 34.7 0 29.4 0c-3.6 0-6.6 1.9-8.3 4.8C19.4 1.9 16.4 0 12.8 0 7.5 0 2.9 4.3 3.2 9.6c0.3 5.2 11.5 16.4 16 20.8v7.8c-2.5-4.3-7.4-7-12.8-6.5l0 0c0.6 6.8 6.1 12 12.8 12.3v11.7C8.4 55.8 0 57.5 0 59.7 0 62 9.5 63.8 21.1 63.8L21.1 63.8z" class="a"/><path d="M21.1 75.2c-8.2 0-14.4-0.7-18.5-2L9.5 89l0.1 0.1c0 1.2 5.2 2.2 11.6 2.2s11.6-1 11.6-2.2V89l6.9-15.8C35.5 74.5 29.3 75.2 21.1 75.2L21.1 75.2z"/></svg>